<svg xmlns="http://www.w3.org/2000/svg" width="1100" height="460" viewBox="0 0 1100 460" font-family="sans-serif" font-size="13">
<rect width="1100" height="460" fill="#ffffff"/>
<text x="70" y="24" font-size="16" font-weight="bold">decompression lzma2, MiB/s of output</text>
<line x1="70" y1="400.0" x2="1080" y2="400.0" stroke="#dddddd"/>
<text x="62" y="404.0" text-anchor="end">0</text>
<line x1="70" y1="312.5" x2="1080" y2="312.5" stroke="#dddddd"/>
<text x="62" y="316.5" text-anchor="end">50</text>
<line x1="70" y1="225.0" x2="1080" y2="225.0" stroke="#dddddd"/>
<text x="62" y="229.0" text-anchor="end">100</text>
<line x1="70" y1="137.5" x2="1080" y2="137.5" stroke="#dddddd"/>
<text x="62" y="141.5" text-anchor="end">150</text>
<line x1="70" y1="50.0" x2="1080" y2="50.0" stroke="#dddddd"/>
<text x="62" y="54.0" text-anchor="end">200</text>
<text x="14" y="225" transform="rotate(-90 14 225)" text-anchor="middle">MiB/s</text>
<rect x="80.1" y="248.7" width="15.2" height="151.3" fill="#9e9e9e"/>
<rect x="96.3" y="170.2" width="15.2" height="229.8" fill="#1f77b4"/>
<rect x="112.4" y="239.7" width="15.2" height="160.3" fill="#2ca02c"/>
<rect x="128.6" y="234.0" width="15.2" height="166.0" fill="#9467bd"/>
<rect x="144.7" y="189.6" width="15.2" height="210.4" fill="#d62728"/>
<text x="120.5" y="418" text-anchor="middle">0</text>
<rect x="181.1" y="238.1" width="15.2" height="161.9" fill="#9e9e9e"/>
<rect x="197.3" y="154.9" width="15.2" height="245.1" fill="#1f77b4"/>
<rect x="213.4" y="229.8" width="15.2" height="170.2" fill="#2ca02c"/>
<rect x="229.6" y="223.0" width="15.2" height="177.0" fill="#9467bd"/>
<rect x="245.7" y="175.4" width="15.2" height="224.6" fill="#d62728"/>
<text x="221.5" y="418" text-anchor="middle">1</text>
<rect x="282.1" y="231.3" width="15.2" height="168.7" fill="#9e9e9e"/>
<rect x="298.3" y="145.2" width="15.2" height="254.8" fill="#1f77b4"/>
<rect x="314.4" y="223.3" width="15.2" height="176.7" fill="#2ca02c"/>
<rect x="330.6" y="216.0" width="15.2" height="184.0" fill="#9467bd"/>
<rect x="346.7" y="166.6" width="15.2" height="233.4" fill="#d62728"/>
<text x="322.5" y="418" text-anchor="middle">2</text>
<rect x="383.1" y="225.6" width="15.2" height="174.4" fill="#9e9e9e"/>
<rect x="399.3" y="137.0" width="15.2" height="263.0" fill="#1f77b4"/>
<rect x="415.4" y="218.6" width="15.2" height="181.4" fill="#2ca02c"/>
<rect x="431.6" y="210.4" width="15.2" height="189.6" fill="#9467bd"/>
<rect x="447.7" y="159.4" width="15.2" height="240.6" fill="#d62728"/>
<text x="423.5" y="418" text-anchor="middle">3</text>
<rect x="484.1" y="227.1" width="15.2" height="172.9" fill="#9e9e9e"/>
<rect x="500.3" y="139.0" width="15.2" height="261.0" fill="#1f77b4"/>
<rect x="516.4" y="217.2" width="15.2" height="182.8" fill="#2ca02c"/>
<rect x="532.6" y="210.8" width="15.2" height="189.2" fill="#9467bd"/>
<rect x="548.7" y="161.2" width="15.2" height="238.8" fill="#d62728"/>
<text x="524.5" y="418" text-anchor="middle">4</text>
<rect x="585.1" y="222.3" width="15.2" height="177.7" fill="#9e9e9e"/>
<rect x="601.3" y="132.1" width="15.2" height="267.9" fill="#1f77b4"/>
<rect x="617.4" y="212.1" width="15.2" height="187.9" fill="#2ca02c"/>
<rect x="633.6" y="204.9" width="15.2" height="195.1" fill="#9467bd"/>
<rect x="649.7" y="155.4" width="15.2" height="244.6" fill="#d62728"/>
<text x="625.5" y="418" text-anchor="middle">5</text>
<rect x="686.1" y="221.5" width="15.2" height="178.5" fill="#9e9e9e"/>
<rect x="702.3" y="130.5" width="15.2" height="269.5" fill="#1f77b4"/>
<rect x="718.4" y="210.9" width="15.2" height="189.1" fill="#2ca02c"/>
<rect x="734.6" y="203.2" width="15.2" height="196.8" fill="#9467bd"/>
<rect x="750.7" y="153.8" width="15.2" height="246.2" fill="#d62728"/>
<text x="726.5" y="418" text-anchor="middle">6</text>
<rect x="787.1" y="220.1" width="15.2" height="179.9" fill="#9e9e9e"/>
<rect x="803.3" y="131.1" width="15.2" height="268.9" fill="#1f77b4"/>
<rect x="819.4" y="210.0" width="15.2" height="190.0" fill="#2ca02c"/>
<rect x="835.6" y="202.0" width="15.2" height="198.0" fill="#9467bd"/>
<rect x="851.7" y="151.9" width="15.2" height="248.1" fill="#d62728"/>
<text x="827.5" y="418" text-anchor="middle">7</text>
<rect x="888.1" y="219.7" width="15.2" height="180.3" fill="#9e9e9e"/>
<rect x="904.3" y="130.9" width="15.2" height="269.1" fill="#1f77b4"/>
<rect x="920.4" y="210.0" width="15.2" height="190.0" fill="#2ca02c"/>
<rect x="936.6" y="201.3" width="15.2" height="198.7" fill="#9467bd"/>
<rect x="952.7" y="151.9" width="15.2" height="248.1" fill="#d62728"/>
<text x="928.5" y="418" text-anchor="middle">8</text>
<rect x="989.1" y="219.5" width="15.2" height="180.5" fill="#9e9e9e"/>
<rect x="1005.3" y="129.3" width="15.2" height="270.7" fill="#1f77b4"/>
<rect x="1021.4" y="209.7" width="15.2" height="190.3" fill="#2ca02c"/>
<rect x="1037.6" y="203.3" width="15.2" height="196.7" fill="#9467bd"/>
<rect x="1053.7" y="153.4" width="15.2" height="246.6" fill="#d62728"/>
<text x="1029.5" y="418" text-anchor="middle">9</text>
<text x="575" y="430" text-anchor="middle">preset</text>
<rect x="70" y="442" width="12" height="12" fill="#9e9e9e"/>
<text x="86" y="452">lzma-rust2 master</text>
<rect x="246" y="442" width="12" height="12" fill="#1f77b4"/>
<text x="262" y="452">lzma-rust2 asm</text>
<rect x="398" y="442" width="12" height="12" fill="#2ca02c"/>
<text x="414" y="452">liblzma</text>
<rect x="494" y="442" width="12" height="12" fill="#9467bd"/>
<text x="510" y="452">7-Zip (C)</text>
<rect x="606" y="442" width="12" height="12" fill="#d62728"/>
<text x="622" y="452">7-Zip (asm)</text>
</svg>
